<?xml version="1.0" encoding="utf-8"?>
<!-- Generator: Adobe Illustrator 22.0.1, SVG Export Plug-In . SVG Version: 6.00 Build 0)  -->
<svg version="1.1" id="Layer_1" xmlns="http://www.w3.org/2000/svg" xmlns:xlink="http://www.w3.org/1999/xlink" x="0px" y="0px"
	 viewBox="0 0 572.3 124.7" style="enable-background:new 0 0 572.3 124.7;" xml:space="preserve">
<style type="text/css">
	.st0{fill:#0033A0;}
	.st1{fill:#BA0C2F;}
	.st2{fill:#FFFFFF;}
	.st3{fill:#007681;}
	.st4{fill:#404040;}
	.st5{opacity:0.5;fill:url(#SVGID_1_);enable-background:new    ;}
	.st6{fill:url(#SVGID_2_);}
</style>
<g id="ACS_Logo_CYMK_-_corrected_1_">
	<polygon class="st0" points="41.7,0 207.5,0 166.1,124.8 41.7,124.8 	"/>
	<rect class="st1" width="41.7" height="124.8"/>
	<path class="st2" d="M73.2,35.7h4.2v2.5l0,0c0.9-1.9,2.8-2.8,4.9-2.8c1.9,0,3.5,0.8,4.2,2.6c1.1-1.8,2.9-2.6,4.8-2.6
		c3.9,0,4.7,2.2,4.7,5.8v7.9h-4.6v-7.2c0-1.5-0.5-2.7-1.9-2.7c-1.6,0-2.6,1.3-2.6,4.2v5.7h-4.6v-7.2c0-1.5-0.6-2.7-1.9-2.7
		c-1.6,0-2.6,1.3-2.6,4.2v5.7h-4.6V35.7z"/>
	<path class="st2" d="M102.5,43.8c0.3,1.9,1.7,2.6,3.9,2.6c1.3,0,2.7-0.3,4.1-1v3.3c-1.5,0.6-3.2,0.9-4.9,0.9c-4.4,0-7.8-2.6-7.8-7
		s3-7,7.2-7c5,0,6.8,3.5,6.8,7.5V44h-9.3V43.8z M107.6,41.1c0-1.5-0.7-2.8-2.6-2.8c-1.7,0-2.5,1.3-2.6,2.8H107.6z"/>
	<path class="st2" d="M123.3,39.4c-0.5-0.2-1-0.2-1.6-0.2c-2.2,0-3.4,1.6-3.4,4.2v5.7h-4.6V35.7h4.2v2.5h0.1c0.8-1.7,2-2.8,4-2.8
		c0.5,0,1.1,0.1,1.6,0.1L123.3,39.4z"/>
	<path class="st2" d="M125,35.7h4.6v13.4H125V35.7z M129.6,33.5H125v-3.4h4.6V33.5z"/>
	<path class="st2" d="M142,39.5c-0.9-0.5-1.7-0.7-2.8-0.7c-2,0-3.5,1.4-3.5,3.7c0,2.1,1.8,3.5,3.8,3.5c1.1,0,2.1-0.2,2.9-0.6
		l0.1,3.4c-1.2,0.4-2.6,0.6-3.8,0.6c-4.4,0-7.8-2.6-7.8-7c0-4.5,3.4-7,7.8-7c1.4,0,2.6,0.2,3.7,0.7L142,39.5z"/>
	<path class="st2" d="M148,44.9c0-1.3,1.2-1.8,2.8-1.8c0.7,0,1.4,0.1,2,0.1c0,1.6-1.1,3.2-2.9,3.2C148.8,46.3,148,45.8,148,44.9
		 M157.4,49.1c-0.2-1.1-0.3-2.1-0.3-3.2v-5c0-4.1-3-5.6-6.4-5.6c-2,0-3.7,0.3-5.4,0.9l0.1,3.1c1.3-0.7,2.8-1,4.3-1
		c1.7,0,3,0.5,3.1,2.3c-0.6-0.1-1.4-0.2-2.2-0.2c-2.5,0-6.9,0.5-6.9,4.6c0,2.9,2.4,4.2,5,4.2c1.9,0,3.2-0.7,4.3-2.4l0,0
		c0,0.7,0.1,1.4,0.1,2.1h4.3V49.1z"/>
	<path class="st2" d="M159.6,35.7h4.2v2.5h0.1c0.9-1.9,2.8-2.8,4.9-2.8c3.7,0,5.1,2.6,5.1,5.4v8.4h-4.6v-6.5c0-2.5-0.9-3.4-2.1-3.4
		c-1.9,0-2.9,1.3-2.9,4.2v5.7h-4.6L159.6,35.7L159.6,35.7z"/>
	<path class="st2" d="M68.2,70.8c-1.4,0.3-2.9,0.7-5.3,0.7c-4.8,0-10.3-2.4-10.3-9.2c0-6.3,4.4-9.4,10.3-9.4c1.8,0,3.6,0.4,5.3,0.9
		l-0.4,3.9c-1.5-0.8-3-1.3-4.7-1.3c-3.4,0-5.6,2.5-5.6,5.8c0,3.5,2.5,5.7,6,5.7c1.6,0,3.2-0.4,4.5-0.9L68.2,70.8z"/>
	<path class="st2" d="M73.7,66.9c0-1.3,1.2-1.8,2.8-1.8c0.7,0,1.4,0,2,0.1c0,1.6-1.1,3.2-2.9,3.2C74.5,68.4,73.7,67.9,73.7,66.9
		 M83.1,71.2c-0.2-1.1-0.3-2.1-0.3-3.2v-5c0-4.1-3-5.6-6.4-5.6c-2,0-3.7,0.3-5.4,1l0.1,3.1c1.3-0.7,2.8-1,4.3-1c1.7,0,3,0.5,3.1,2.3
		c-0.6-0.1-1.4-0.2-2.2-0.2c-2.5,0-6.9,0.5-6.9,4.6c0,2.9,2.4,4.2,5,4.2c1.9,0,3.2-0.8,4.3-2.4l0,0c0,0.7,0.1,1.4,0.1,2.1h4.3V71.2z
		"/>
	<path class="st2" d="M85.2,57.8h4.2v2.5h0.1c0.9-1.9,2.8-2.8,4.9-2.8c3.7,0,5.1,2.6,5.1,5.4v8.4h-4.6v-6.5c0-2.5-0.9-3.4-2.1-3.4
		c-1.9,0-2.9,1.3-2.9,4.2v5.7h-4.6L85.2,57.8L85.2,57.8z"/>
	<path class="st2" d="M112.4,61.6c-0.9-0.5-1.7-0.8-2.8-0.8c-2,0-3.6,1.4-3.6,3.7c0,2.2,1.8,3.5,3.8,3.5c1.1,0,2.1-0.2,2.9-0.6
		l0.1,3.5c-1.2,0.4-2.5,0.6-3.8,0.6c-4.4,0-7.8-2.6-7.8-7c0-4.5,3.4-7,7.8-7c1.4,0,2.6,0.2,3.7,0.7L112.4,61.6z"/>
	<path class="st2" d="M118.8,63.2c0.1-1.5,0.9-2.8,2.6-2.8c1.9,0,2.6,1.3,2.6,2.8H118.8z M128.2,65.8V65c0-4-1.8-7.5-6.8-7.5
		c-4.2,0-7.2,2.6-7.2,7s3.4,7,7.8,7c1.7,0,3.4-0.3,4.9-0.9v-3.3c-1.4,0.7-2.8,1-4.1,1c-2.3,0-3.7-0.7-3.9-2.6h9.3V65.8z"/>
	<path class="st2" d="M139.6,61.5c-0.5-0.2-1-0.2-1.6-0.2c-2.2,0-3.4,1.6-3.4,4.2v5.7H130V57.8h4.2v2.5h0.1c0.8-1.7,2-2.8,4-2.8
		c0.5,0,1.1,0.1,1.6,0.2L139.6,61.5z"/>
	<path class="st2" d="M53.2,88.8c1.2,0.7,3,1.2,4.9,1.2c1.5,0,3-0.3,3-1.7c0-3.4-8.5-1.2-8.5-7.8c0-4.3,4.2-5.5,7.8-5.5
		c1.7,0,3.4,0.3,4.6,0.7l-0.3,3.7c-1.2-0.6-2.6-0.8-4-0.8c-1.2,0-3.2,0.1-3.2,1.7c0,2.9,8.5,1,8.5,7.5c0,4.7-3.9,5.9-7.9,5.9
		c-1.7,0-3.8-0.3-5.4-0.8L53.2,88.8z"/>
	<path class="st2" d="M74.9,90.3c-2.1,0-3-1.8-3-3.8s0.9-3.8,3-3.8s3,1.8,3,3.8C77.9,88.6,77,90.3,74.9,90.3 M74.9,93.6
		c4.4,0,7.8-2.6,7.8-7c0-4.5-3.4-7-7.8-7s-7.8,2.6-7.8,7S70.4,93.6,74.9,93.6"/>
	<path class="st2" d="M94.9,83.7c-0.9-0.5-1.7-0.8-2.8-0.8c-2,0-3.6,1.4-3.6,3.7c0,2.1,1.8,3.5,3.8,3.5c1.1,0,2.1-0.2,2.9-0.6
		l0.1,3.4c-1.2,0.4-2.5,0.6-3.8,0.6c-4.4,0-7.8-2.6-7.8-7c0-4.5,3.4-7,7.8-7c1.4,0,2.6,0.2,3.7,0.8L94.9,83.7z"/>
	<path class="st2" d="M97.4,79.9h4.6v13.4h-4.6V79.9z M102.1,77.7h-4.6v-3.4h4.6V77.7z"/>
	<path class="st2" d="M108.7,85.3c0.1-1.5,0.9-2.8,2.6-2.8c1.9,0,2.6,1.3,2.6,2.8H108.7z M118,87.9v-0.8c0-4-1.8-7.5-6.8-7.5
		c-4.2,0-7.2,2.6-7.2,7s3.4,7,7.8,7c1.7,0,3.4-0.3,4.9-0.9v-3.3c-1.4,0.7-2.8,1-4.1,1c-2.3,0-3.7-0.7-3.9-2.6h9.3V87.9z"/>
	<path class="st2" d="M118.5,79.9h2.7v-3l4.6-1.4v4.4h3.2v3.2h-3.2V88c0,1.6,0.4,2.4,1.9,2.4c0.5,0,0.9-0.1,1.4-0.2l0.2,3
		c-0.9,0.1-1.8,0.3-2.9,0.3c-4.1,0-5.2-1.8-5.2-5V83h-2.6v-3.1H118.5z"/>
	<path class="st2" d="M131.5,95.2c0.6,0.2,1.2,0.3,1.8,0.3c1.1,0,2-0.7,2.3-1.9l-5.4-13.7h5l2.9,8.7h0.1l2.8-8.7h4.6l-4.9,12.5
		c-1.3,3.4-2.3,6.6-6.6,6.6c-1,0-1.9-0.1-2.9-0.3L131.5,95.2z"/>
	<path class="st2" d="M148.4,82.5c0-2,1.4-3.4,3.1-3.4c1.7,0,3.1,1.4,3.1,3.4s-1.4,3.4-3.1,3.4C149.8,85.9,148.4,84.5,148.4,82.5
		 M147.1,82.5c0,2.4,2,4.4,4.4,4.4s4.4-2,4.4-4.4s-2-4.4-4.4-4.4S147.1,80,147.1,82.5 M149.8,84.9h1v-2.1h0.5l1.2,2.1h1.1l-1.3-2.1
		c0.7-0.1,1.3-0.4,1.3-1.3c0-1.1-0.7-1.5-2-1.5h-1.8V84.9z M150.8,82v-1.2h0.7c0.4,0,1,0.1,1,0.6c0,0.6-0.3,0.7-0.8,0.7L150.8,82
		L150.8,82z"/>
	<path class="st2" d="M25.9,83.3c0.8-0.6,2.5-0.9,3.4,0.1s0.7,2.5-0.3,3.4c-1.1,1-9.3,7.6-11,8.8c-0.6,0.4-2.3,0.5-3.1-0.4
		s-0.4-2.7,0.2-3.2C16,91.1,25,83.9,25.9,83.3"/>
	<path class="st2" d="M24.3,92.3c0.9-0.6,2.4-0.8,3.3,0.1c0.9,1,0.7,2.5-0.2,3.4c-1.2,1.2-7.2,5.6-8,6.2c-0.6,0.4-2.3,0.5-3.1-0.4
		c-0.8-1-0.7-2.5,0.2-3.2C17.5,97.5,23.4,93,24.3,92.3"/>
	<path class="st2" d="M23.8,100.4v3.4c1.6,1.1,1.8,3.7,0.3,5c-1.6,1.4-4.6,0.6-5.2-1.4v-3.5C19.8,103.5,23.8,100.4,23.8,100.4"/>
	<polygon class="st2" points="21.3,12.3 23.8,18.2 23.8,75.7 21.4,77.5 18.9,75.6 18.9,18.2 	"/>
	<path class="st2" d="M30.8,66h-5.2l1.6,2.6l-1.9,2.7c2.2,1.1,4.4-1.1,5-0.4c0.3,0.3,0.6,0.9,0.2,1.2l-17,13.4
		c-0.8,0.9-0.7,2.2,0.2,3.1s2.1,0.9,3.1,0.2L34.3,75c1.4-1.7,1.6-3.5,0.9-5.7C34.4,67.2,32.9,66.3,30.8,66"/>
	<path class="st2" d="M11.8,66h5.4l-1.7,2.6l1.9,2.7c-2.2,1.1-4.6-1-5.2-0.4c-0.3,0.3-0.5,0.9-0.2,1.1l8.1,6.5l-3.7,2.9L8.3,75
		c-1.4-1.7-1.6-3.6-0.9-5.7C8.2,67.2,9.7,66.3,11.8,66"/>
	<path class="st2" d="M64.1,41.9h-4.5l2.3-7l0,0L64.1,41.9z M52.2,49.1h4.9l1.4-3.8h6.7l1.3,3.8h5.3l-6.9-18H59L52.2,49.1z"/>
</g>
<title>HPV_logo-FINAL</title>
<path class="st3" d="M231.1,10.9h4.9l4.5,12.3l1.6,4.7h0.2l1.6-4.7l4.4-12.3h4.9v25H249V24.4c0-2.3,0.3-5.6,0.6-7.9h-0.1l-2,5.7
	l-4.3,11.3h-2l-4.3-11.3l-2-5.7h-0.1c0.2,2.3,0.5,5.6,0.5,7.9v11.4h-4L231.1,10.9z"/>
<path class="st3" d="M258,11.4c-0.1-1.5,1-2.8,2.5-2.9s2.8,1,2.9,2.5s-1,2.8-2.5,2.9c-0.1,0-0.2,0-0.2,0c-1.4,0.1-2.6-0.9-2.7-2.3
	C258,11.5,258,11.4,258,11.4z M258.5,17.1h4.4v18.7h-4.4V17.1z"/>
<path class="st3" d="M268,30.9c1.4,1.3,3.3,2,5.2,2.1c2,0,3-1,3-2.3c0-1.6-2-2.2-4-3c-2.5-0.9-5.3-2.3-5.3-5.5
	c0-3.3,2.6-5.6,6.8-5.6c2.3,0,4.5,0.8,6.2,2.2l-2,2.7c-1.2-1-2.6-1.5-4.1-1.6c-1.9,0-2.8,0.9-2.8,2.1c0,1.5,1.9,2.1,3.9,2.8
	c2.6,1,5.4,2.2,5.4,5.7c0,3.2-2.6,5.8-7.3,5.8c-2.6-0.1-5.1-1-7.1-2.6L268,30.9z"/>
<path class="st3" d="M284.3,30.9c1.4,1.3,3.3,2,5.2,2.1c2,0,3-1,3-2.3c0-1.6-2-2.2-4-3c-2.5-0.9-5.3-2.3-5.3-5.5
	c0-3.3,2.6-5.6,6.8-5.6c2.3,0,4.5,0.8,6.2,2.2l-2,2.7c-1.2-1-2.6-1.5-4.1-1.6c-1.9,0-2.8,0.9-2.8,2.1c0,1.5,1.9,2.1,3.9,2.8
	c2.6,1,5.4,2.2,5.4,5.7c0,3.2-2.6,5.8-7.3,5.8c-2.6-0.1-5.1-1-7.1-2.6L284.3,30.9z"/>
<path class="st3" d="M299.6,11.4c-0.1-1.5,1-2.8,2.5-2.9c1.5-0.1,2.8,1,2.9,2.5s-1,2.8-2.5,2.9c-0.1,0-0.2,0-0.3,0
	c-1.4,0.1-2.6-1-2.7-2.3C299.6,11.4,299.6,11.4,299.6,11.4z M300.1,17.1h4.4v18.7h-4.4V17.1z"/>
<path class="st3" d="M317.1,16.6c4.7,0,8.9,3.6,8.9,9.9s-4.2,9.8-8.9,9.8s-8.9-3.6-8.9-9.8S312.4,16.6,317.1,16.6z M317.1,32.7
	c2.8,0,4.4-2.5,4.4-6.2s-1.7-6.3-4.4-6.3s-4.4,2.5-4.4,6.3S314.3,32.7,317.1,32.7L317.1,32.7z"/>
<path class="st3" d="M329.8,17.1h3.6l0.3,2.5h0.1c1.7-1.6,3.6-3,6.1-3c4,0,5.8,2.7,5.8,7.4v11.8h-4.4V24.7c0-3.1-0.9-4.2-2.9-4.2
	c-1.6,0-2.7,0.8-4.3,2.3v13.1h-4.4L329.8,17.1z"/>
<path class="st3" d="M352.8,17.3c1.6,0,2.8,1.3,2.8,2.8c0,0.1,0,0.1,0,0.2c0.1,1.6-1.1,2.9-2.7,3c-0.1,0-0.1,0-0.2,0
	c-1.7,0-3-1.3-3-3S351.1,17.3,352.8,17.3z M352.8,30.4c1.7,0,3,1.3,3,3c0,1.7-1.3,3-3,3s-3-1.3-3-3S351.1,30.4,352.8,30.4z"/>
<path class="st4" d="M407.7,42.1c4,0.1,7.7,1.7,10.5,4.6l-5,5.6c-1.4-1.5-3.4-2.3-5.4-2.3c-4.1,0-7.6,3.7-7.6,10
	c0,6.5,3,10.1,7.4,10.1c2.3,0,4.5-1,6-2.8l5,5.5c-2.8,3.3-6.8,5.1-11.1,5.1c-9,0-16.6-5.8-16.6-17.6
	C390.8,48.6,398.8,42.1,407.7,42.1z"/>
<path class="st4" d="M440.4,69.8h-9.6l-1.7,7.3h-9.3l10.5-34.4h11l10.5,34.4h-9.6L440.4,69.8z M438.7,62.8l-0.6-2.4
	c-0.9-3.3-1.7-7.5-2.5-10.9h-0.2c-0.7,3.5-1.6,7.6-2.4,10.9l-0.6,2.4L438.7,62.8z"/>
<path class="st4" d="M454.6,42.7h9.3l7.6,15.4l3.3,7.7h0.2c-0.6-4.4-1-8.7-1.2-13.2v-10h8.7v34.5h-9.3l-7.6-15.4l-3.3-7.7h-0.2
	c0.6,4.4,1,8.8,1.1,13.1v10h-8.7L454.6,42.7z"/>
<path class="st4" d="M503.1,42.1c4,0.1,7.7,1.7,10.5,4.6l-5,5.6c-1.4-1.5-3.3-2.3-5.4-2.3c-4.1,0-7.6,3.7-7.6,10
	c0,6.5,3,10.1,7.4,10.1c2.3,0,4.5-1,6-2.8l5,5.5c-2.8,3.3-6.8,5.1-11.1,5.1c-9,0-16.6-5.8-16.6-17.6
	C486.3,48.6,494.3,42.1,503.1,42.1z"/>
<path class="st4" d="M516.9,42.7h22.3v7.6H526v5.4h11.2v7.6H526v6.2h13.7v7.6h-22.8V42.7z"/>
<path class="st4" d="M562.1,77.2l-5.9-11.6h-3.5v11.6h-9.1V42.7h13c7.4,0,13.8,2.5,13.8,11.1c0,4.9-2.2,8.2-5.6,10l7.5,13.3
	L562.1,77.2L562.1,77.2z M552.7,58.4h3.3c3.6,0,5.5-1.6,5.5-4.6s-1.9-3.9-5.5-3.9h-3.3V58.4z"/>
<path class="st4" d="M391.5,85.1H414v7.6h-13.4v6.6H412v7.6h-11.5v12.6h-9.1V85.1H391.5z"/>
<path class="st4" d="M436.5,119.5l-5.9-11.6H427v11.6h-9.1V85.1h13c7.4,0,13.8,2.5,13.8,11.1c0,4.9-2.2,8.2-5.6,10l7.5,13.4
	L436.5,119.5z M427,100.8h3.2c3.6,0,5.5-1.6,5.5-4.6s-1.9-3.9-5.5-3.9H427V100.8z"/>
<path class="st4" d="M449.5,85.1h22.3v7.6h-13.1v5.4h11.2v7.6h-11.2v6.2h13.7v7.6h-22.8V85.1H449.5z"/>
<path class="st4" d="M476.6,85.1h22.3v7.6h-13.1v5.4H497v7.6h-11.2v6.2h13.7v7.6h-22.8V85.1H476.6z"/>
<path class="st3" d="M360.9,42.7l-12.3,53.4c-0.6-2.7-1.2-5.3-1.8-7.9c-0.9-3.9-1.8-8-2.8-12l-1.4-6C342.1,82,336.2,90,328,94.6
	l7.4,25H361l22.7-76.9L360.9,42.7z"/>
<path class="st3" d="M308.1,42.7h-35.7v27.7h-19.9V42.7h-22.1v76.9h22.1V90h19.9v29.6h22.1v-59h12.7c7.2,0,10.3,2.4,10.3,8
	c0,6.2-3.5,9.4-10.3,9.4h-7.1v18h8c14.3,0,31-7.2,31-27.3C339.1,51.7,328.4,42.7,308.1,42.7z"/>
<linearGradient id="SVGID_1_" gradientUnits="userSpaceOnUse" x1="222" y1="567.15" x2="272.21" y2="567.15" gradientTransform="matrix(1 0 0 1 0 -486)">
	<stop  offset="0.62" style="stop-color:#231F20;stop-opacity:0"/>
	<stop  offset="0.69" style="stop-color:#231F20;stop-opacity:4.000000e-02"/>
	<stop  offset="0.76" style="stop-color:#231F20;stop-opacity:0.15"/>
	<stop  offset="0.83" style="stop-color:#231F20;stop-opacity:0.33"/>
	<stop  offset="0.91" style="stop-color:#231F20;stop-opacity:0.58"/>
	<stop  offset="0.98" style="stop-color:#231F20;stop-opacity:0.9"/>
	<stop  offset="1" style="stop-color:#231F20"/>
</linearGradient>
<polygon class="st5" points="272.4,70.4 252.5,70.4 252.5,42.7 230.4,42.7 230.4,119.6 252.5,119.6 252.5,90 272.4,90 "/>
<linearGradient id="SVGID_2_" gradientUnits="userSpaceOnUse" x1="335.4476" y1="582.1392" x2="390.5325" y2="560.6473" gradientTransform="matrix(1 0 0 1 -3.74 -489.58)">
	<stop  offset="0" style="stop-color:#231F20"/>
	<stop  offset="5.000000e-02" style="stop-color:#231F20;stop-opacity:0.77"/>
	<stop  offset="0.11" style="stop-color:#231F20;stop-opacity:0.54"/>
	<stop  offset="0.18" style="stop-color:#231F20;stop-opacity:0.34"/>
	<stop  offset="0.25" style="stop-color:#231F20;stop-opacity:0.19"/>
	<stop  offset="0.34" style="stop-color:#231F20;stop-opacity:8.000000e-02"/>
	<stop  offset="0.44" style="stop-color:#231F20;stop-opacity:2.000000e-02"/>
	<stop  offset="0.61" style="stop-color:#231F20;stop-opacity:0"/>
</linearGradient>
<path class="st6" d="M383.7,42.7h-22.8c0,0-11.6,50.3-12.3,53.4l5.5,23.5h6.9L383.7,42.7z"/>
</svg>
