<?xml version="1.0" encoding="utf-8"?>
<!-- Generator: Adobe Illustrator 21.1.0, SVG Export Plug-In . SVG Version: 6.00 Build 0)  -->
<!DOCTYPE svg PUBLIC "-//W3C//DTD SVG 1.1//EN" "http://www.w3.org/Graphics/SVG/1.1/DTD/svg11.dtd">
<svg version="1.1" id="Layer_1" xmlns="http://www.w3.org/2000/svg" xmlns:xlink="http://www.w3.org/1999/xlink" x="0px" y="0px"
	 viewBox="0 0 572.3 124.7" style="enable-background:new 0 0 572.3 124.7;" xml:space="preserve">
<style type="text/css">
	.st0{fill:#FFFFFF;}
	.st1{fill:none;stroke:#FFFFFF;stroke-width:2;}
	.st2{fill:#FFFFFF;stroke:#FFFFFF;stroke-width:2;}
</style>
<title>HPV_logo-FINAL</title>
<path class="st0" d="M231.1,10.9h4.9l4.5,12.3l1.6,4.7h0.2l1.6-4.7l4.4-12.3h4.9v25H249V24.4c0-2.3,0.3-5.6,0.6-7.9h-0.1l-2,5.7
	l-4.3,11.3h-2l-4.3-11.3l-2-5.7h-0.1c0.2,2.3,0.5,5.6,0.5,7.9v11.4h-4L231.1,10.9z"/>
<path class="st0" d="M258,11.4c-0.1-1.5,1-2.8,2.5-2.9s2.8,1,2.9,2.5c0.1,1.5-1,2.8-2.5,2.9c-0.1,0-0.2,0-0.2,0
	c-1.4,0.1-2.6-0.9-2.7-2.3C258,11.5,258,11.4,258,11.4z M258.5,17.1h4.4v18.7h-4.4V17.1z"/>
<path class="st0" d="M268,30.9c1.4,1.3,3.3,2,5.2,2.1c2,0,3-1,3-2.3c0-1.6-2-2.2-4-3c-2.5-0.9-5.3-2.3-5.3-5.5
	c0-3.3,2.6-5.6,6.8-5.6c2.3,0,4.5,0.8,6.2,2.2l-2,2.7c-1.2-1-2.6-1.5-4.1-1.6c-1.9,0-2.8,0.9-2.8,2.1c0,1.5,1.9,2.1,3.9,2.8
	c2.6,1,5.4,2.2,5.4,5.7c0,3.2-2.6,5.8-7.3,5.8c-2.6-0.1-5.1-1-7.1-2.6L268,30.9z"/>
<path class="st0" d="M284.3,30.9c1.4,1.3,3.3,2,5.2,2.1c2,0,3-1,3-2.3c0-1.6-2-2.2-4-3c-2.5-0.9-5.3-2.3-5.3-5.5
	c0-3.3,2.6-5.6,6.8-5.6c2.3,0,4.5,0.8,6.2,2.2l-2,2.7c-1.2-1-2.6-1.5-4.1-1.6c-1.9,0-2.8,0.9-2.8,2.1c0,1.5,1.9,2.1,3.9,2.8
	c2.6,1,5.4,2.2,5.4,5.7c0,3.2-2.6,5.8-7.3,5.8c-2.6-0.1-5.1-1-7.1-2.6L284.3,30.9z"/>
<path class="st0" d="M299.6,11.4c-0.1-1.5,1-2.8,2.5-2.9c1.5-0.1,2.8,1,2.9,2.5s-1,2.8-2.5,2.9c-0.1,0-0.2,0-0.3,0
	c-1.4,0.1-2.6-1-2.7-2.3C299.6,11.4,299.6,11.4,299.6,11.4z M300.1,17.1h4.4v18.7h-4.4L300.1,17.1z"/>
<path class="st0" d="M317.1,16.6c4.7,0,8.9,3.6,8.9,9.9s-4.2,9.8-8.9,9.8s-8.9-3.6-8.9-9.8S312.4,16.6,317.1,16.6z M317.1,32.7
	c2.8,0,4.4-2.5,4.4-6.2s-1.7-6.3-4.4-6.3s-4.4,2.5-4.4,6.3S314.3,32.7,317.1,32.7L317.1,32.7z"/>
<path class="st0" d="M329.8,17.1h3.6l0.3,2.5h0.1c1.7-1.6,3.6-3,6.1-3c4,0,5.8,2.7,5.8,7.4v11.8h-4.4V24.7c0-3.1-0.9-4.2-2.9-4.2
	c-1.6,0-2.7,0.8-4.3,2.3v13.1h-4.4L329.8,17.1z"/>
<path class="st0" d="M352.8,17.3c1.6,0,2.8,1.3,2.8,2.8c0,0.1,0,0.1,0,0.2c0.1,1.6-1.1,2.9-2.7,3c-0.1,0-0.1,0-0.2,0
	c-1.7,0-3-1.3-3-3S351.1,17.3,352.8,17.3z M352.8,30.4c1.7,0,3,1.3,3,3c0,1.7-1.3,3-3,3s-3-1.3-3-3
	C349.8,31.7,351.1,30.4,352.8,30.4z"/>
<path class="st0" d="M407.7,42.1c4,0.1,7.7,1.7,10.5,4.6l-5,5.6c-1.4-1.5-3.4-2.3-5.4-2.3c-4.1,0-7.6,3.7-7.6,10
	c0,6.5,3,10.1,7.4,10.1c2.3,0,4.5-1,6-2.8l5,5.5c-2.8,3.3-6.8,5.1-11.1,5.1c-9,0-16.6-5.8-16.6-17.6
	C390.8,48.6,398.8,42.1,407.7,42.1z"/>
<path class="st0" d="M440.4,69.8h-9.6l-1.7,7.3h-9.3l10.5-34.4h11l10.5,34.4h-9.6L440.4,69.8z M438.7,62.8l-0.6-2.4
	c-0.9-3.3-1.7-7.5-2.5-10.9h-0.2c-0.7,3.5-1.6,7.6-2.4,10.9l-0.6,2.4L438.7,62.8z"/>
<path class="st0" d="M454.6,42.7h9.3l7.6,15.4l3.3,7.7h0.2c-0.6-4.4-1-8.7-1.2-13.2v-10h8.7v34.5h-9.3l-7.6-15.4l-3.3-7.7h-0.2
	c0.6,4.4,1,8.8,1.1,13.1v10h-8.7L454.6,42.7z"/>
<path class="st0" d="M503.1,42.1c4,0.1,7.7,1.7,10.5,4.6l-5,5.6c-1.4-1.5-3.3-2.3-5.4-2.3c-4.1,0-7.6,3.7-7.6,10
	c0,6.5,3,10.1,7.4,10.1c2.3,0,4.5-1,6-2.8l5,5.5c-2.8,3.3-6.8,5.1-11.1,5.1c-9,0-16.6-5.8-16.6-17.6
	C486.3,48.6,494.3,42.1,503.1,42.1z"/>
<path class="st0" d="M516.9,42.7h22.3v7.6H526v5.4h11.2v7.6H526v6.2h13.7v7.6h-22.8V42.7z"/>
<path class="st0" d="M562.1,77.2l-5.9-11.6h-3.5v11.6h-9.1V42.7h13c7.4,0,13.8,2.5,13.8,11.1c0,4.9-2.2,8.2-5.6,10l7.5,13.3H562.1z
	 M552.7,58.4h3.3c3.6,0,5.5-1.6,5.5-4.6s-1.9-3.9-5.5-3.9h-3.3V58.4z"/>
<path class="st0" d="M391.5,85.1h22.5v7.6h-13.4v6.6H412v7.6h-11.5v12.6h-9.1V85.1z"/>
<path class="st0" d="M436.5,119.5l-5.9-11.6H427v11.6h-9.1V85.1h13c7.4,0,13.8,2.5,13.8,11.1c0,4.9-2.2,8.2-5.6,10l7.5,13.4
	L436.5,119.5z M427,100.8h3.2c3.6,0,5.5-1.6,5.5-4.6s-1.9-3.9-5.5-3.9H427L427,100.8z"/>
<path class="st0" d="M449.5,85.1h22.3v7.6h-13.1v5.4h11.2v7.6h-11.2v6.2h13.7v7.6h-22.8V85.1z"/>
<path class="st0" d="M476.6,85.1h22.3v7.6h-13.1v5.4H497v7.6h-11.2v6.2h13.7v7.6h-22.8V85.1z"/>
<g>
	<path class="st0" d="M68.4,42.4H64l2.2-6.7h0.1L68.4,42.4z M56.9,49.4h4.7l1.4-3.7h6.5l1.3,3.7h5l-6.7-17.2h-5.6L56.9,49.4z"/>
	<path class="st0" d="M77.1,36.5h4.1v2.4h0c0.9-1.8,2.7-2.7,4.7-2.7c1.8,0,3.3,0.8,4,2.5c1-1.7,2.7-2.5,4.6-2.5
		c3.7,0,4.6,2.1,4.6,5.6v7.6h-4.4v-6.9c0-1.5-0.5-2.5-1.8-2.5c-1.6,0-2.5,1.3-2.5,4v5.4h-4.5v-6.9c0-1.5-0.5-2.5-1.8-2.5
		c-1.6,0-2.5,1.3-2.5,4v5.4h-4.4V36.5z"/>
	<path class="st0" d="M105.2,44.2c0.2,1.8,1.6,2.5,3.8,2.5c1.2,0,2.6-0.3,3.9-1v3.1c-1.4,0.6-3.1,0.8-4.7,0.8
		c-4.2,0-7.5-2.5-7.5-6.7c0-4.3,2.9-6.7,6.9-6.7c4.8,0,6.5,3.4,6.5,7.2v0.8H105.2z M110.1,41.7c0-1.5-0.7-2.7-2.5-2.7
		c-1.6,0-2.4,1.2-2.5,2.7H110.1z"/>
	<path class="st0" d="M125.1,40c-0.5-0.1-1-0.1-1.5-0.1c-2.1,0-3.2,1.5-3.2,4v5.4h-4.4V36.5h4.1v2.4h0.1c0.8-1.6,1.9-2.7,3.8-2.7
		c0.5,0,1.1,0.1,1.5,0.1L125.1,40z"/>
	<path class="st0" d="M126.8,36.5h4.4v12.9h-4.4V36.5z M131.2,34.4h-4.4v-3.3h4.4V34.4z"/>
	<path class="st0" d="M143.2,40.2c-0.8-0.5-1.6-0.7-2.7-0.7c-1.9,0-3.4,1.3-3.4,3.5c0,2.1,1.7,3.4,3.7,3.4c1,0,2-0.2,2.8-0.6
		l0.1,3.3c-1.1,0.4-2.4,0.6-3.6,0.6c-4.2,0-7.5-2.5-7.5-6.7c0-4.3,3.2-6.7,7.5-6.7c1.3,0,2.5,0.2,3.5,0.7L143.2,40.2z"/>
	<path class="st0" d="M148.9,45.3c0-1.2,1.2-1.7,2.7-1.7c0.7,0,1.3,0,1.9,0.1c0,1.5-1.1,3-2.7,3C149.7,46.7,148.9,46.2,148.9,45.3z
		 M157.9,49.4c-0.2-1-0.3-2-0.3-3v-4.8c0-3.9-2.8-5.3-6.1-5.3c-1.9,0-3.6,0.3-5.2,0.9l0.1,3c1.2-0.7,2.7-1,4.1-1
		c1.6,0,2.9,0.5,2.9,2.2c-0.6-0.1-1.4-0.2-2.1-0.2c-2.4,0-6.7,0.5-6.7,4.4c0,2.8,2.3,4.1,4.8,4.1c1.8,0,3.1-0.7,4.1-2.3h0
		c0,0.7,0.1,1.3,0.1,2H157.9z"/>
	<path class="st0" d="M160,36.5h4v2.4h0.1c0.9-1.8,2.7-2.7,4.7-2.7c3.5,0,4.9,2.5,4.9,5.1v8h-4.4v-6.2c0-2.4-0.8-3.2-2.1-3.2
		c-1.8,0-2.8,1.3-2.8,4v5.4H160V36.5z"/>
	<path class="st0" d="M72.3,70.2c-1.3,0.3-2.8,0.7-5.1,0.7c-4.6,0-9.9-2.3-9.9-8.8c0-6,4.2-9,9.9-9c1.8,0,3.5,0.4,5.1,0.9l-0.4,3.7
		c-1.5-0.8-2.9-1.2-4.5-1.2c-3.3,0-5.4,2.4-5.4,5.6c0,3.4,2.4,5.4,5.8,5.4c1.5,0,3-0.4,4.3-0.9L72.3,70.2z"/>
	<path class="st0" d="M77.6,66.5c0-1.2,1.2-1.7,2.7-1.7c0.7,0,1.3,0,1.9,0.1c0,1.5-1.1,3-2.7,3C78.4,67.9,77.6,67.4,77.6,66.5z
		 M86.6,70.5c-0.2-1-0.3-2-0.3-3v-4.8c0-3.9-2.8-5.3-6.1-5.3c-1.9,0-3.6,0.3-5.1,0.9l0.1,3c1.2-0.7,2.7-1,4.1-1
		c1.6,0,2.9,0.5,2.9,2.2c-0.6-0.1-1.4-0.2-2.1-0.2c-2.4,0-6.6,0.5-6.6,4.4c0,2.8,2.3,4.1,4.8,4.1c1.8,0,3.1-0.7,4.1-2.3h0.1
		c0,0.7,0.1,1.3,0.1,2H86.6z"/>
	<path class="st0" d="M88.6,57.7h4.1v2.4h0.1c0.9-1.9,2.7-2.7,4.7-2.7c3.5,0,4.9,2.5,4.9,5.1v8h-4.4v-6.2c0-2.4-0.9-3.2-2.1-3.2
		c-1.8,0-2.8,1.3-2.8,4v5.4h-4.4V57.7z"/>
	<path class="st0" d="M114.7,61.4c-0.8-0.5-1.6-0.7-2.7-0.7c-1.9,0-3.4,1.3-3.4,3.5c0,2.1,1.7,3.4,3.7,3.4c1,0,2-0.2,2.8-0.6
		l0.1,3.3c-1.1,0.4-2.5,0.6-3.6,0.6c-4.2,0-7.5-2.5-7.5-6.7c0-4.3,3.3-6.7,7.5-6.7c1.3,0,2.5,0.2,3.6,0.7L114.7,61.4z"/>
	<path class="st0" d="M120.9,62.9c0.1-1.5,0.9-2.7,2.5-2.7c1.8,0,2.5,1.2,2.5,2.7H120.9z M129.8,65.4v-0.8c0-3.8-1.7-7.2-6.5-7.2
		c-4,0-6.9,2.5-6.9,6.7c0,4.3,3.2,6.8,7.5,6.8c1.6,0,3.3-0.2,4.7-0.8v-3.1c-1.3,0.7-2.7,1-3.9,1c-2.2,0-3.5-0.7-3.8-2.5H129.8z"/>
	<path class="st0" d="M140.9,61.2c-0.5-0.2-1-0.2-1.5-0.2c-2.1,0-3.2,1.5-3.2,4v5.4h-4.4V57.7h4.1v2.4h0.1c0.8-1.6,1.9-2.7,3.8-2.7
		c0.5,0,1.1,0.1,1.5,0.1L140.9,61.2z"/>
	<path class="st0" d="M57.9,87.5c1.2,0.6,2.8,1.1,4.7,1.1c1.5,0,2.8-0.3,2.8-1.7c0-3.2-8.2-1.2-8.2-7.5c0-4.2,4.1-5.3,7.5-5.3
		c1.7,0,3.3,0.3,4.4,0.7L69,78.4c-1.2-0.5-2.5-0.8-3.8-0.8c-1.2,0-3.1,0.1-3.1,1.6c0,2.8,8.1,0.9,8.1,7.1c0,4.5-3.8,5.7-7.6,5.7
		c-1.6,0-3.6-0.2-5.1-0.7L57.9,87.5z"/>
	<path class="st0" d="M78.7,88.9c-2,0-2.9-1.7-2.9-3.6c0-1.9,0.8-3.6,2.9-3.6c2.1,0,2.9,1.7,2.9,3.6C81.6,87.2,80.7,88.9,78.7,88.9z
		 M78.7,92c4.3,0,7.5-2.5,7.5-6.7c0-4.3-3.2-6.7-7.5-6.7c-4.3,0-7.5,2.5-7.5,6.7C71.2,89.6,74.4,92,78.7,92z"/>
	<path class="st0" d="M97.9,82.6c-0.8-0.5-1.6-0.7-2.7-0.7c-1.9,0-3.4,1.3-3.4,3.6c0,2.1,1.7,3.4,3.7,3.4c1,0,2-0.2,2.8-0.6l0.1,3.3
		c-1.1,0.4-2.5,0.6-3.6,0.6c-4.2,0-7.5-2.5-7.5-6.7c0-4.3,3.2-6.7,7.5-6.7c1.3,0,2.5,0.2,3.5,0.7L97.9,82.6z"/>
	<path class="st0" d="M100.3,78.9h4.5v12.9h-4.5V78.9z M104.8,76.8h-4.5v-3.3h4.5V76.8z"/>
	<path class="st0" d="M111.2,84.1c0.1-1.5,0.9-2.7,2.5-2.7c1.8,0,2.5,1.2,2.5,2.7H111.2z M120.1,86.6v-0.8c0-3.8-1.7-7.2-6.5-7.2
		c-4,0-6.9,2.5-6.9,6.7c0,4.3,3.2,6.7,7.5,6.7c1.7,0,3.3-0.2,4.7-0.8v-3.1c-1.3,0.7-2.7,1-3.9,1c-2.2,0-3.5-0.7-3.8-2.5H120.1z"/>
	<path class="st0" d="M120.5,78.9h2.6V76l4.4-1.4v4.2h3.1V82h-3.1v4.7c0,1.6,0.4,2.3,1.8,2.3c0.4,0,0.9-0.1,1.4-0.2l0.1,2.9
		c-0.8,0.1-1.7,0.2-2.8,0.2c-4,0-5-1.8-5-4.8V82h-2.5V78.9z"/>
	<path class="st0" d="M133,93.6c0.6,0.2,1.1,0.3,1.8,0.3c1.1,0,1.9-0.6,2.3-1.8l-5.2-13.2h4.8l2.8,8.4h0.1l2.6-8.4h4.4l-4.7,12
		c-1.3,3.2-2.2,6.4-6.3,6.4c-0.9,0-1.8-0.1-2.8-0.3L133,93.6z"/>
	<g>
		<g>
			<path class="st0" d="M27,82.1c0.8-0.6,2.4-0.9,3.3,0.1c0.9,1,0.7,2.4-0.3,3.2c-1.1,1-9,7.3-10.5,8.4c-0.6,0.4-2.2,0.5-3-0.4
				c-0.8-0.9-0.4-2.6,0.2-3.1C17.5,89.6,26.1,82.8,27,82.1z"/>
		</g>
		<g>
			<path class="st0" d="M25.5,90.8c0.8-0.6,2.3-0.8,3.1,0.1c0.9,0.9,0.7,2.4-0.2,3.2c-1.2,1.1-6.9,5.4-7.7,6c-0.6,0.4-2.2,0.5-3-0.4
				c-0.8-0.9-0.7-2.4,0.2-3.1C19,95.8,24.6,91.5,25.5,90.8z"/>
		</g>
		<g>
			<path class="st0" d="M24.9,98.6l0,3.3c1.5,1.1,1.7,3.5,0.3,4.8c-1.5,1.3-4.4,0.5-5-1.4V102C21.1,101.5,24.9,98.6,24.9,98.6z"/>
		</g>
		<g>
			<polygon class="st0" points="22.6,14 25,19.7 25,74.9 22.7,76.6 20.3,74.8 20.3,19.7 			"/>
		</g>
		<g>
			<path class="st0" d="M31.7,65.5h-5l1.6,2.5l-1.8,2.6c2.1,1,4.2-1,4.8-0.4c0.3,0.3,0.6,0.9,0.2,1.2L15.2,84.2
				c-0.7,0.9-0.6,2.2,0.2,3c0.8,0.8,2,0.9,2.9,0.2l16.7-13.2c1.4-1.7,1.5-3.4,0.8-5.4C35.1,66.7,33.7,65.8,31.7,65.5z"/>
		</g>
		<g>
			<path class="st0" d="M13.5,65.6h5.2L17.1,68l1.8,2.6c-2.1,1.1-4.4-1-5-0.4c-0.3,0.3-0.5,0.8-0.2,1.1l7.8,6.2l-3.6,2.8l-7.8-6.1
				c-1.4-1.6-1.6-3.4-0.8-5.4C10,66.7,11.4,65.8,13.5,65.6z"/>
		</g>
	</g>
	<g>
		<path class="st0" d="M152.4,77.1c2.5,0,4.5,2,4.5,4.5c0,2.5-2,4.5-4.5,4.5c-2.5,0-4.5-2-4.5-4.5C147.9,79.2,149.9,77.1,152.4,77.1
			z M152.4,85.5c2.1,0,3.6-1.7,3.6-3.8c0-2.2-1.6-3.8-3.6-3.8c-2.1,0-3.7,1.7-3.7,3.8C148.8,83.8,150.3,85.5,152.4,85.5z M150.7,79
			h2c1.2,0,1.8,0.5,1.8,1.5c0,0.9-0.5,1.5-1.4,1.5l1.5,2.3h-0.9l-1.5-2.3h-0.7v2.3h-0.9V79z M151.5,81.3h1c0.7,0,1.1-0.1,1.1-0.8
			c0-0.6-0.5-0.8-1.1-0.8h-1V81.3z"/>
	</g>
	<polygon class="st1" points="2.2,2.3 206,2.3 166.3,122 2.2,122 	"/>
	<line class="st2" x1="44.3" y1="2.7" x2="44.3" y2="122.5"/>
</g>
<path class="st0" d="M360.9,42.7l-12.3,53.4c-0.6-2.7-1.2-5.3-1.8-7.9c-0.9-3.9-1.8-8-2.8-12l-1.4-6c-0.5,11.8-6.4,19.8-14.6,24.4
	l7.4,25h25.6l22.7-76.9L360.9,42.7z"/>
<path class="st0" d="M308.1,42.7h-35.7v27.7h-19.9V42.7h-22.1v76.9h22.1V90h19.9v29.6h22.1v-59h12.7c7.2,0,10.3,2.4,10.3,8
	c0,6.2-3.5,9.4-10.3,9.4h-7.1v18h8c14.3,0,31-7.2,31-27.3C339.1,51.7,328.4,42.7,308.1,42.7z"/>
</svg>
